{
  "accessors": [
    {
      "bufferView": 2,
      "componentType": 5126,
      "count": 65532,
      "max": [
        27.85028076171875,
        9.844039916992188,
        35.419490814208984
      ],
      "min": [
        -29.695039749145508,
        -72.93798065185547,
        -36.033180236816406
      ],
      "type": "VEC3"
    },
    {
      "bufferView": 2,
      "byteOffset": 786384,
      "componentType": 5126,
      "count": 65532,
      "max": [
        0.9999096393585205,
        1.0,
        0.9999729990959167
      ],
      "min": [
        -0.9999778866767883,
        -0.9993173480033875,
        -0.9999967217445374
      ],
      "type": "VEC3"
    },
    {
      "bufferView": 1,
      "componentType": 5126,
      "count": 65532,
      "max": [
        0.9925100207328796,
        0.9970999956130981
      ],
      "min": [
        0.003109999932348728,
        0.5873299837112427
      ],
      "type": "VEC2"
    },
    {
      "bufferView": 0,
      "componentType": 5125,
      "count": 338472,
      "type": "SCALAR"
    },
    {
      "bufferView": 2,
      "byteOffset": 1572768,
      "componentType": 5126,
      "count": 65534,
      "max": [
        29.695039749145508,
        0.26497000455856323,
        36.033180236816406
      ],
      "min": [
        -29.695039749145508,
        -74.12866973876953,
        -36.01694869995117
      ],
      "type": "VEC3"
    },
    {
      "bufferView": 2,
      "byteOffset": 2359176,
      "componentType": 5126,
      "count": 65534,
      "max": [
        0.999991238117218,
        0.9969204664230347,
        0.9999176859855652
      ],
      "min": [
        -0.9998932480812073,
        -1.0,
        -0.9999942183494568
      ],
      "type": "VEC3"
    },
    {
      "bufferView": 1,
      "byteOffset": 524256,
      "componentType": 5126,
      "count": 65534,
      "max": [
        0.9973899722099304,
        0.9971799850463867
      ],
      "min": [
        0.0003699999942909926,
        0.5856800079345703
      ],
      "type": "VEC2"
    },
    {
      "bufferView": 0,
      "byteOffset": 1353888,
      "componentType": 5125,
      "count": 293442,
      "type": "SCALAR"
    },
    {
      "bufferView": 2,
      "byteOffset": 3145584,
      "componentType": 5126,
      "count": 17328,
      "max": [
        29.369359970092773,
        -25.721939086914063,
        36.02735900878906
      ],
      "min": [
        -29.552780151367188,
        -73.93611907958984,
        -36.00667953491211
      ],
      "type": "VEC3"
    },
    {
      "bufferView": 2,
      "byteOffset": 3353520,
      "componentType": 5126,
      "count": 17328,
      "max": [
        0.9999963045120239,
        0.998670220375061,
        0.9997192621231079
      ],
      "min": [
        -0.9999365210533142,
        -0.9999651908874512,
        -0.9999067187309265
      ],
      "type": "VEC3"
    },
    {
      "bufferView": 1,
      "byteOffset": 1048528,
      "componentType": 5126,
      "count": 17328,
      "max": [
        0.9881399869918823,
        0.9971799850463867
      ],
      "min": [
        0.0003699999942909926,
        0.5850099921226501
      ],
      "type": "VEC2"
    },
    {
      "bufferView": 0,
      "byteOffset": 2527656,
      "componentType": 5125,
      "count": 51222,
      "type": "SCALAR"
    }
  ],
  "asset": {
    "extras": {
      "author": "visionaut (https://sketchfab.com/visionaut)",
      "license": "CC-BY-4.0 (http://creativecommons.org/licenses/by/4.0/)",
      "source": "https://sketchfab.com/3d-models/santal-ace-6c9dad5c781841dbae2dcbd9fc3e95fb",
      "title": "Santal ACE"
    },
    "generator": "Sketchfab-12.67.0",
    "version": "2.0"
  },
  "bufferViews": [
    {
      "buffer": 0,
      "byteLength": 2732544,
      "name": "floatBufferViews",
      "target": 34963
    },
    {
      "buffer": 0,
      "byteLength": 1187152,
      "byteOffset": 2732544,
      "byteStride": 8,
      "name": "floatBufferViews",
      "target": 34962
    },
    {
      "buffer": 0,
      "byteLength": 3561456,
      "byteOffset": 3919696,
      "byteStride": 12,
      "name": "floatBufferViews",
      "target": 34962
    }
  ],
  "buffers": [
    {
      "byteLength": 7481152,
      "uri": "scene.bin"
    }
  ],
  "extensionsUsed": [
    "KHR_materials_unlit"
  ],
  "images": [
    {
      "uri": "textures/material0_baseColor.png"
    }
  ],
  "materials": [
    {
      "doubleSided": true,
      "extensions": {
        "KHR_materials_unlit": {}
      },
      "name": "material0",
      "pbrMetallicRoughness": {
        "baseColorTexture": {
          "index": 0
        },
        "metallicFactor": 0.0
      }
    }
  ],
  "meshes": [
    {
      "name": "object_material0_0",
      "primitives": [
        {
          "attributes": {
            "NORMAL": 1,
            "POSITION": 0,
            "TEXCOORD_0": 2
          },
          "indices": 3,
          "material": 0,
          "mode": 4
        }
      ]
    },
    {
      "name": "object_material0_0",
      "primitives": [
        {
          "attributes": {
            "NORMAL": 5,
            "POSITION": 4,
            "TEXCOORD_0": 6
          },
          "indices": 7,
          "material": 0,
          "mode": 4
        }
      ]
    },
    {
      "name": "object_material0_0",
      "primitives": [
        {
          "attributes": {
            "NORMAL": 9,
            "POSITION": 8,
            "TEXCOORD_0": 10
          },
          "indices": 11,
          "material": 0,
          "mode": 4
        }
      ]
    }
  ],
  "nodes": [
    {
      "children": [
        1
      ],
      "matrix": [
        1.0,
        0.0,
        0.0,
        0.0,
        0.0,
        2.220446049250313e-16,
        -1.0,
        0.0,
        0.0,
        1.0,
        2.220446049250313e-16,
        0.0,
        0.0,
        0.0,
        0.0,
        1.0
      ],
      "name": "Sketchfab_model"
    },
    {
      "children": [
        2
      ],
      "matrix": [
        1.0,
        0.0,
        0.0,
        0.0,
        0.0,
        0.0,
        1.0,
        0.0,
        0.0,
        -1.0,
        0.0,
        0.0,
        0.0,
        0.0,
        0.0,
        1.0
      ],
      "name": "model_Santal ACE_20210120_104002934.fbx"
    },
    {
      "children": [
        3
      ],
      "name": "RootNode"
    },
    {
      "children": [
        4
      ],
      "name": "Qlone_root"
    },
    {
      "children": [
        5,
        6,
        7
      ],
      "name": "object"
    },
    {
      "mesh": 0,
      "name": "object_material0_0"
    },
    {
      "mesh": 1,
      "name": "object_material0_0"
    },
    {
      "mesh": 2,
      "name": "object_material0_0"
    }
  ],
  "samplers": [
    {
      "magFilter": 9729,
      "minFilter": 9987,
      "wrapS": 10497,
      "wrapT": 10497
    }
  ],
  "scene": 0,
  "scenes": [
    {
      "name": "Sketchfab_Scene",
      "nodes": [
        0
      ]
    }
  ],
  "textures": [
    {
      "sampler": 0,
      "source": 0
    }
  ]
}
