{
  "accessors": [
    {
      "bufferView": 2,
      "componentType": 5126,
      "count": 28715,
      "max": [
        3.687897205352783,
        2.671403408050537,
        12.748126029968262
      ],
      "min": [
        -3.687896966934204,
        -2.671403408050537,
        -12.748126029968262
      ],
      "type": "VEC3"
    },
    {
      "bufferView": 2,
      "byteOffset": 344580,
      "componentType": 5126,
      "count": 28715,
      "max": [
        0.9999889135360718,
        0.9999997019767761,
        0.9997857809066772
      ],
      "min": [
        -0.9999853372573853,
        -0.9999924302101135,
        -0.9988551139831543
      ],
      "type": "VEC3"
    },
    {
      "bufferView": 3,
      "componentType": 5126,
      "count": 28715,
      "max": [
        0.9999144673347473,
        0.9999487996101379,
        0.995182454586029,
        -1.0
      ],
      "min": [
        -0.9992613196372986,
        -0.9999908208847046,
        -0.9983998537063599,
        -1.0
      ],
      "type": "VEC4"
    },
    {
      "bufferView": 1,
      "componentType": 5126,
      "count": 28715,
      "max": [
        0.9698413610458374,
        0.9999991655349731
      ],
      "min": [
        7.690027268836275e-05,
        2.7418136596679688e-06
      ],
      "type": "VEC2"
    },
    {
      "bufferView": 0,
      "componentType": 5125,
      "count": 164904,
      "type": "SCALAR"
    }
  ],
  "asset": {
    "extras": {
      "author": "Tomek Suchodolski (https://sketchfab.com/XID3)",
      "license": "CC-BY-4.0 (http://creativecommons.org/licenses/by/4.0/)",
      "source": "https://sketchfab.com/3d-models/zucchini-1d759f9b2d934275b4ce7bb7fb5c53f0",
      "title": "Zucchini"
    },
    "generator": "Sketchfab-14.51.0",
    "version": "2.0"
  },
  "bufferViews": [
    {
      "buffer": 0,
      "byteLength": 659616,
      "name": "floatBufferViews",
      "target": 34963
    },
    {
      "buffer": 0,
      "byteLength": 229720,
      "byteOffset": 659616,
      "byteStride": 8,
      "name": "floatBufferViews",
      "target": 34962
    },
    {
      "buffer": 0,
      "byteLength": 689160,
      "byteOffset": 889336,
      "byteStride": 12,
      "name": "floatBufferViews",
      "target": 34962
    },
    {
      "buffer": 0,
      "byteLength": 459440,
      "byteOffset": 1578496,
      "byteStride": 16,
      "name": "floatBufferViews",
      "target": 34962
    }
  ],
  "buffers": [
    {
      "byteLength": 2037936,
      "uri": "scene.bin"
    }
  ],
  "images": [
    {
      "uri": "textures/Scene_-_Root_baseColor.jpeg"
    },
    {
      "uri": "textures/Scene_-_Root_metallicRoughness.png"
    },
    {
      "uri": "textures/Scene_-_Root_normal.png"
    }
  ],
  "materials": [
    {
      "doubleSided": true,
      "name": "Scene_-_Root",
      "normalTexture": {
        "index": 2
      },
      "pbrMetallicRoughness": {
        "baseColorTexture": {
          "index": 0
        },
        "metallicRoughnessTexture": {
          "index": 1
        },
        "roughnessFactor": 0.7411262684368476
      }
    }
  ],
  "meshes": [
    {
      "name": "zucchini__0",
      "primitives": [
        {
          "attributes": {
            "NORMAL": 1,
            "POSITION": 0,
            "TANGENT": 2,
            "TEXCOORD_0": 3
          },
          "indices": 4,
          "material": 0,
          "mode": 4
        }
      ]
    }
  ],
  "nodes": [
    {
      "children": [
        1
      ],
      "matrix": [
        1.2211374044418335,
        0.0,
        0.0,
        0.0,
        0.0,
        2.711469725284651e-16,
        -1.2211374044418335,
        0.0,
        0.0,
        1.2211374044418335,
        2.711469725284651e-16,
        0.0,
        0.0,
        0.0,
        0.0,
        1.0
      ],
      "name": "Sketchfab_model"
    },
    {
      "children": [
        2
      ],
      "matrix": [
        0.009999999776482582,
        0.0,
        0.0,
        0.0,
        0.0,
        0.0,
        0.009999999776482582,
        0.0,
        0.0,
        -0.009999999776482582,
        0.0,
        0.0,
        0.0,
        0.0,
        0.0,
        1.0
      ],
      "name": "6851539a5a34477db5762b28f2533e58.fbx"
    },
    {
      "children": [
        3
      ],
      "name": "RootNode"
    },
    {
      "children": [
        4
      ],
      "name": "zucchini"
    },
    {
      "mesh": 0,
      "name": "zucchini__0"
    }
  ],
  "samplers": [
    {
      "magFilter": 9729,
      "minFilter": 9987,
      "wrapS": 10497,
      "wrapT": 10497
    }
  ],
  "scene": 0,
  "scenes": [
    {
      "name": "Sketchfab_Scene",
      "nodes": [
        0
      ]
    }
  ],
  "textures": [
    {
      "sampler": 0,
      "source": 0
    },
    {
      "sampler": 0,
      "source": 1
    },
    {
      "sampler": 0,
      "source": 2
    }
  ]
}
